<svg xmlns="http://www.w3.org/2000/svg" width="524.056" height="419.868" viewBox="0 0 524.056 419.868">
  <g id="Grupo_1" data-name="Grupo 1" transform="translate(-141.767 -369.916)">
    <path id="oreja1" d="M87.5,0,175,151H0Z" transform="matrix(0.819, -0.574, 0.574, 0.819, 141.767, 528.511)" fill="#d68214"/>
    <path id="oreja2" d="M80.5,0,161,152H0Z" transform="matrix(0.951, 0.309, -0.309, 0.951, 512.703, 369.916)" fill="#2c48d5"/>
    <g id="_1ojo" data-name="1ojo" transform="translate(500 620)" fill="#f2f2f2" stroke="#707070" stroke-width="1">
      <ellipse cx="23" cy="25" rx="23" ry="25" stroke="none"/>
      <ellipse cx="23" cy="25" rx="22.5" ry="24.5" fill="none"/>
    </g>
    <g id="_2ojo" data-name="2ojo" transform="translate(385 645)" fill="#fff" stroke="#707070" stroke-width="1">
      <ellipse cx="23" cy="25" rx="23" ry="25" stroke="none"/>
      <ellipse cx="23" cy="25" rx="22.5" ry="24.5" fill="none"/>
    </g>
    <g id="boquita" transform="translate(776.754 37.303) rotate(-8)">
      <path id="Trazado_1" data-name="Trazado 1" d="M37.792,36.681,52.5,44.833l21.45-3.94" transform="matrix(0.485, 0.875, -0.875, 0.485, -369.419, 609.496)" fill="none" stroke="#c8c8c8" stroke-width="3"/>
      <path id="Trazado_2" data-name="Trazado 2" d="M-11.5,19.5,0-2" transform="translate(-383.835 680.298) rotate(17)" fill="none" stroke="#c8c8c8" stroke-width="3"/>
    </g>
    <path id="nariz" d="M33.5,0,67,34H0Z" transform="translate(523.346 745.578) rotate(172)" fill="#9d7650"/>
    <rect id="Rectángulo_17" data-name="Rectángulo 17" width="65" height="9" transform="translate(554.019 712.133) rotate(-16)" fill="#b2ae39"/>
    <rect id="Rectángulo_20" data-name="Rectángulo 20" width="65" height="9" transform="translate(359.019 781.133) rotate(-16)" fill="#fff"/>
    <rect id="Rectángulo_18" data-name="Rectángulo 18" width="65" height="9" transform="translate(566.28 736.305) rotate(3)" fill="#058764"/>
    <rect id="Rectángulo_19" data-name="Rectángulo 19" width="65" height="9" transform="translate(353.28 733.305) rotate(3)" fill="#b23966"/>
  </g>
</svg>
