<svg xmlns="http://www.w3.org/2000/svg" width="179.308" height="115.476" viewBox="0 0 179.308 115.476">
  <path id="Sustracción_7" data-name="Sustracción 7" d="M83.971,207a84.547,84.547,0,0,1-16.923-1.707,83.5,83.5,0,0,1-30.026-12.639A84.246,84.246,0,0,1,6.6,155.7a83.592,83.592,0,0,1-4.893-15.768,84.842,84.842,0,0,1,0-33.858A83.549,83.549,0,0,1,14.341,76.035,84.224,84.224,0,0,1,51.286,45.6a83.535,83.535,0,0,1,15.762-4.894A84.818,84.818,0,0,1,93,39.481V61.644a62.47,62.47,0,0,0-8.723-.611A61.661,61.661,0,1,0,93,183.741v22.777A85.271,85.271,0,0,1,83.971,207Z" transform="translate(217.928 28.809) rotate(98)" fill="#d14b4b"/>
</svg>
