<svg xmlns="http://www.w3.org/2000/svg" width="357.829" height="431.685" viewBox="0 0 357.829 431.685">
  <path id="Sustracción_16" data-name="Sustracción 16" d="M188.709,417a189.786,189.786,0,0,1-38.032-3.84A187.528,187.528,0,0,1,83.2,384.722,189.523,189.523,0,0,1,14.83,301.567a188.248,188.248,0,0,1-11-35.478,191.12,191.12,0,0,1,0-76.18,188.105,188.105,0,0,1,28.395-67.581,189.307,189.307,0,0,1,83.026-68.476A187.565,187.565,0,0,1,150.677,42.84,190.388,190.388,0,0,1,209,40.083V89.949a140.225,140.225,0,0,0-19.6-1.376c-76.383,0-138.525,62.237-138.525,138.738S113.014,366.049,189.4,366.049a139.847,139.847,0,0,0,19.6-1.38v51.248A191.408,191.408,0,0,1,188.709,417Z" transform="matrix(-0.891, 0.454, -0.454, -0.891, 375.534, 371.549)" fill="#5e5e0a"/>
</svg>
