<?xml version="1.0" encoding="UTF-8" standalone="no"?>
<svg
   xmlns:dc="http://purl.org/dc/elements/1.1/"
   xmlns:cc="http://creativecommons.org/ns#"
   xmlns:rdf="http://www.w3.org/1999/02/22-rdf-syntax-ns#"
   xmlns:svg="http://www.w3.org/2000/svg"
   xmlns="http://www.w3.org/2000/svg"
   xmlns:sodipodi="http://sodipodi.sourceforge.net/DTD/sodipodi-0.dtd"
   xmlns:inkscape="http://www.inkscape.org/namespaces/inkscape"
   width="179.308"
   height="115.476"
   viewBox="0 0 179.308 115.476"
   version="1.1"
   id="svg3"
   sodipodi:docname="sus-4.svg"
   inkscape:version="1.0.2 (e86c870879, 2021-01-15, custom)">
  <metadata
     id="metadata9">
    <rdf:RDF>
      <cc:Work
         rdf:about="">
        <dc:format>image/svg+xml</dc:format>
        <dc:type
           rdf:resource="http://purl.org/dc/dcmitype/StillImage" />
        <dc:title></dc:title>
      </cc:Work>
    </rdf:RDF>
  </metadata>
  <defs
     id="defs7" />
  <sodipodi:namedview
     pagecolor="#ffffff"
     bordercolor="#666666"
     borderopacity="1"
     objecttolerance="10"
     gridtolerance="10"
     guidetolerance="10"
     inkscape:pageopacity="0"
     inkscape:pageshadow="2"
     inkscape:window-width="747"
     inkscape:window-height="510"
     id="namedview5"
     showgrid="false"
     inkscape:zoom="2.4074267"
     inkscape:cx="89.653999"
     inkscape:cy="57.737999"
     inkscape:window-x="0"
     inkscape:window-y="0"
     inkscape:window-maximized="0"
     inkscape:current-layer="svg3" />
  <path
     id="Sustracción_7"
     data-name="Sustracción 7"
     d="m 1.2560053,83.153966 a 84.547,84.546998 0 0 1 4.045614,-16.520737 83.499999,83.499998 0 0 1 16.6948097,-27.97478 84.246,84.245998 0 0 1 40.82829,-24.982932 83.592,83.591998 0 0 1 16.29552,-2.6509 84.842,84.841998 0 0 1 33.528501,4.712123 83.548999,83.548998 0 0 1 27.98835,16.691668 84.224,84.223998 0 0 1 24.99705,40.821185 83.534999,83.534998 0 0 1 2.65273,16.289718 84.818,84.817998 0 0 1 -2.39874,25.869929 l -21.94731,-3.0845 a 62.469999,62.469998 0 0 0 1.81906,-8.55307 A 61.661,61.660998 0 1 0 23.032057,95.332124 L 0.47672059,92.162178 A 85.270999,85.270998 0 0 1 1.2560053,83.153966 Z"
     fill="#d14b4b"
     style="stroke-width:1;fill:#f9f9f9" />
</svg>
