<svg xmlns="http://www.w3.org/2000/svg" width="549" height="549" viewBox="0 0 549 549">
  <path id="Sustracción_1" data-name="Sustracción 1" d="M499.5,541a276.537,276.537,0,0,1-55.321-5.577,273,273,0,0,1-98.154-41.3,275.3,275.3,0,0,1-99.453-120.772,273.125,273.125,0,0,1-15.995-51.526,277.176,277.176,0,0,1,0-110.643,272.994,272.994,0,0,1,41.3-98.154A275.3,275.3,0,0,1,392.652,13.571,273.12,273.12,0,0,1,444.179-2.423a277.177,277.177,0,0,1,110.643,0,272.995,272.995,0,0,1,98.154,41.3,275.3,275.3,0,0,1,99.453,120.772,273.124,273.124,0,0,1,15.995,51.527,277.178,277.178,0,0,1,0,110.643,273,273,0,0,1-41.3,98.154,275.3,275.3,0,0,1-120.772,99.453,273.12,273.12,0,0,1-51.526,15.995A276.538,276.538,0,0,1,499.5,541Zm1-477C389.392,64,299,154.392,299,265.5S389.392,467,500.5,467,702,376.608,702,265.5,611.607,64,500.5,64Z" transform="translate(-225 8)" fill="#fff"/>
</svg>
